<?xml version="1.0" standalone="no"?><!DOCTYPE svg PUBLIC "-//W3C//DTD SVG 1.1//EN" "http://www.w3.org/Graphics/SVG/1.1/DTD/svg11.dtd"><svg t="1746937764737" class="icon" viewBox="0 0 1024 1024" version="1.1" xmlns="http://www.w3.org/2000/svg" p-id="3281" xmlns:xlink="http://www.w3.org/1999/xlink" width="200" height="200"><path d="M960.64 728.32H63.36c-28.16 0-51.2-23.04-51.2-51.2V347.52c0-28.16 23.04-51.2 51.2-51.2H960c28.16 0 51.2 23.04 51.2 51.2v329.6c0.64 28.16-22.4 51.2-50.56 51.2z" fill="#FB7701" p-id="3282"></path><path d="M388.48 552.32c0 16.64-6.4 30.08-18.56 39.04-12.8 9.6-30.72 14.08-53.12 14.08h-61.44V416h53.12c45.44 0 68.48 15.36 68.48 46.08 0 11.52-3.2 20.48-9.6 28.16-6.4 7.68-15.36 12.8-26.88 15.36 15.36 1.92 26.88 6.4 35.2 14.72 8.32 8.32 12.8 18.56 12.8 32z m-44.16-85.76c0-8.96-3.2-16-8.96-20.48-6.4-4.48-15.36-6.4-28.16-6.4h-19.2v55.68h19.2c12.16 0 21.12-2.56 27.52-7.68 6.4-4.48 9.6-12.16 9.6-21.12z m10.88 82.56c0-10.24-3.84-17.92-11.52-23.04-7.68-5.76-18.56-8.32-32.64-8.32H288v63.36h24.96c14.08 0 24.96-2.56 32-8.32 7.04-5.12 10.24-13.44 10.24-23.68zM442.24 542.08c0.64 14.08 3.84 24.96 9.6 32.64s13.44 11.52 23.68 11.52c7.04 0 12.8-1.92 17.92-5.12 5.12-3.2 10.24-8.96 14.72-17.28l24.32 11.52c-5.12 8.32-10.88 14.72-16 19.2-5.12 4.48-11.52 7.68-18.56 10.24-7.04 1.92-15.36 3.2-24.96 3.2-19.84 0-35.84-6.4-46.72-19.2-10.88-12.8-16.64-30.08-16.64-53.12s5.76-40.96 17.28-52.48c11.52-12.16 27.52-18.56 46.72-18.56 19.84 0 34.56 6.4 44.8 19.2 10.24 12.8 15.36 30.72 15.36 54.4v3.84H442.24z m30.72-55.68c-8.96 0-16 3.2-21.76 9.6-5.12 6.4-8.32 15.36-8.96 26.88h60.16c-0.64-12.8-3.84-21.76-8.32-27.52-4.48-6.4-11.52-8.96-21.12-8.96zM605.44 608c-10.88 0-19.2-3.2-25.6-8.96-6.4-6.4-9.6-14.72-9.6-26.24V490.24H550.4v-22.4h20.48l9.6-33.28h21.12v33.28h33.28v22.4H601.6v74.24c0 13.44 5.76 20.48 17.28 20.48 5.76 0 11.52-0.64 17.92-1.92v20.48c-10.88 2.56-21.12 4.48-31.36 4.48zM768.64 605.44h-30.08l-1.28-21.76a45.44 45.44 0 0 1-16.64 19.2 44.8 44.8 0 0 1-23.68 5.76c-14.08 0-24.96-3.84-32.64-10.88-7.68-7.04-11.52-17.28-11.52-30.72 0-14.08 5.12-25.6 15.36-32.64 10.24-7.68 24.96-11.52 45.44-12.16l23.68-0.64v-5.76c0-10.88-1.92-18.56-5.12-23.04-3.2-5.12-8.96-7.04-17.28-7.04-7.04 0-12.8 1.28-16 3.84-3.2 2.56-5.76 7.04-7.04 12.8l-30.08-4.48c2.56-11.52 8.32-19.84 16.64-25.6 8.32-5.12 20.48-7.68 36.48-7.68 18.56 0 32 4.48 40.32 12.8s12.8 22.4 12.8 40.32v87.68z m-61.44-19.2c9.6 0 17.28-3.2 22.4-10.24 5.76-6.4 8.32-15.36 8.32-25.6v-12.8l-14.72 0.64c-13.44 0.64-22.4 3.2-28.16 7.04-5.76 3.84-8.32 10.24-8.32 19.2-0.64 14.72 6.4 21.76 20.48 21.76z" fill="#FFFFFF" p-id="3283"></path></svg>