<?xml version="1.0" standalone="no"?><!DOCTYPE svg PUBLIC "-//W3C//DTD SVG 1.1//EN" "http://www.w3.org/Graphics/SVG/1.1/DTD/svg11.dtd"><svg t="1746935503928" class="icon" viewBox="0 0 1024 1024" version="1.1" xmlns="http://www.w3.org/2000/svg" p-id="12754" xmlns:xlink="http://www.w3.org/1999/xlink" width="200" height="200"><path d="M656.275685 166.222518C690.168695 123.113886 715.801777 62.188384 706.552023 0c-55.430261 3.788645-120.144407 38.773877-157.826062 84.271745-34.473253 41.231376-62.802758 102.53233-51.744012 162.058422 60.618315 1.911388 123.01149-33.858878 159.293736-80.073517z m299.132269 585.05548c-24.233673 53.177553-35.838531 77.035775-67.069251 124.137843-43.620612 65.806369-104.989829 147.72301-181.035777 148.303253-67.581229 0.750903-85.022647-43.58648-176.701022-43.0745-91.678375 0.511979-110.894653 43.961931-178.510014 43.313424-76.114213-0.750903-134.206764-74.612408-177.759112-140.418776C52.584169 699.636382 39.784694 483.820163 114.840817 368.966206 168.291425 287.527411 252.494906 239.913364 331.680993 239.913364c80.551364 0 131.203154 43.791271 197.965217 43.791271 64.680015 0 104.102398-43.893667 197.248446-43.893667 70.516575 0 145.265511 38.057106 198.477196 103.863475-174.414182 94.716117-146.152941 341.558263 30.036102 407.671818v-0.068263z" fill="#333333" p-id="12755"></path></svg>